<svg width="64" height="64" viewBox="0 0 64 64" fill="none" xmlns="http://www.w3.org/2000/svg">
  <rect width="64" height="64" rx="16" fill="#EFF6FF"/>
  <path d="M22 16C17.5817 16 14 19.5817 14 24V29.5C14 35.8513 16.0071 42.04 19.7347 47.1814L22.3758 50.8238C23.3566 52.1768 24.9286 53 26.5998 53C28.8516 53 30.7758 51.3849 31.1652 49.167L32 44L32.8348 49.167C33.2242 51.3849 35.1484 53 37.4002 53C39.0714 53 40.6434 52.1768 41.6242 50.8238L44.2653 47.1814C47.9929 42.04 50 35.8513 50 29.5V24C50 19.5817 46.4183 16 42 16C39.5166 16 37.2051 17.2398 35.8377 19.3029L32 25.0909L28.1623 19.3029C26.7949 17.2398 24.4834 16 22 16Z" fill="white"/>
  <path d="M22 20C19.7909 20 18 21.7909 18 24V29.5C18 35.0006 19.7386 40.3604 22.9674 44.8121L25.6085 48.4545C25.8537 48.7928 26.2467 49 26.6644 49C27.2274 49 27.7085 48.5962 27.8058 48.0418L29.9575 35.1145C30.1247 34.1103 30.9937 33.3737 32 33.3737C33.0063 33.3737 33.8753 34.1103 34.0425 35.1145L36.1942 48.0418C36.2915 48.5962 36.7726 49 37.3356 49C37.7533 49 38.1463 48.7928 38.3915 48.4545L41.0326 44.8121C44.2614 40.3604 46 35.0006 46 29.5V24C46 21.7909 44.2091 20 42 20C40.8551 20 39.7843 20.5676 39.1426 21.5357L34.5062 28.5305C33.9573 29.3587 33.0302 29.8571 32 29.8571C30.9698 29.8571 30.0427 29.3587 29.4938 28.5305L24.8574 21.5357C24.2157 20.5676 23.1449 20 22 20Z" fill="#3B82F6"/>
</svg>
